<svg width="36" height="36" viewBox="0 0 36 36" fill="none" xmlns="http://www.w3.org/2000/svg">
<path fill-rule="evenodd" clip-rule="evenodd" d="M0 18C0 8.05888 8.05888 0 18 0C27.9411 0 36 8.05888 36 18C36 27.9411 27.9411 36 18 36C8.05888 36 0 27.9411 0 18Z" fill="#F11974"/>
<mask id="mask0" mask-type="alpha" maskUnits="userSpaceOnUse" x="0" y="0" width="36" height="36">
<path fill-rule="evenodd" clip-rule="evenodd" d="M0 18C0 8.05888 8.05888 0 18 0C27.9411 0 36 8.05888 36 18C36 27.9411 27.9411 36 18 36C8.05888 36 0 27.9411 0 18Z" fill="white"/>
</mask>
<g mask="url(#mask0)">
<path fill-rule="evenodd" clip-rule="evenodd" d="M18.0009 8.40002C15.3937 8.40002 15.0665 8.41142 14.0425 8.45803C13.0204 8.50483 12.3228 8.66663 11.7124 8.90403C11.081 9.14923 10.5454 9.47724 10.0118 10.011C9.47781 10.5446 9.1498 11.0803 8.9038 11.7115C8.6658 12.3221 8.50379 13.0199 8.45779 14.0415C8.41199 15.0655 8.39999 15.3929 8.39999 18.0001C8.39999 20.6074 8.41159 20.9336 8.45799 21.9576C8.50499 22.9796 8.6668 23.6772 8.904 24.2876C9.1494 24.919 9.47741 25.4546 10.0112 25.9882C10.5446 26.5222 11.0802 26.851 11.7112 27.0962C12.322 27.3336 13.0198 27.4954 14.0417 27.5422C15.0657 27.5888 15.3927 27.6002 17.9997 27.6002C20.6071 27.6002 20.9333 27.5888 21.9573 27.5422C22.9793 27.4954 23.6778 27.3336 24.2886 27.0962C24.9198 26.851 25.4546 26.5222 25.988 25.9882C26.522 25.4546 26.85 24.919 27.096 24.2878C27.332 23.6772 27.494 22.9794 27.542 21.9578C27.588 20.9338 27.6 20.6074 27.6 18.0001C27.6 15.3929 27.588 15.0657 27.542 14.0417C27.494 13.0197 27.332 12.3221 27.096 11.7117C26.85 11.0803 26.522 10.5446 25.988 10.011C25.454 9.47704 24.92 9.14903 24.288 8.90403C23.676 8.66663 22.9779 8.50483 21.9559 8.45803C20.9319 8.41142 20.6059 8.40002 17.9979 8.40002H18.0009ZM17.1397 10.13C17.3953 10.1296 17.6805 10.13 18.0009 10.13C20.5641 10.13 20.8679 10.1392 21.8801 10.1852C22.8161 10.228 23.3241 10.3845 23.6625 10.5159C24.1105 10.6899 24.4299 10.8979 24.7657 11.2339C25.1017 11.5699 25.3098 11.8899 25.4842 12.3379C25.6156 12.6759 25.7722 13.1839 25.8148 14.1199C25.8608 15.1319 25.8708 15.4359 25.8708 17.9979C25.8708 20.56 25.8608 20.864 25.8148 21.876C25.772 22.812 25.6156 23.32 25.4842 23.658C25.3102 24.106 25.1017 24.425 24.7657 24.7608C24.4297 25.0968 24.1107 25.3048 23.6625 25.4788C23.3245 25.6108 22.8161 25.7668 21.8801 25.8096C20.8681 25.8556 20.5641 25.8656 18.0009 25.8656C15.4374 25.8656 15.1336 25.8556 14.1216 25.8096C13.1856 25.7664 12.6776 25.61 12.339 25.4786C11.891 25.3046 11.571 25.0966 11.235 24.7606C10.899 24.4246 10.691 24.1054 10.5166 23.6572C10.3852 23.3192 10.2286 22.8112 10.186 21.8752C10.14 20.8632 10.1308 20.5592 10.1308 17.9955C10.1308 15.4319 10.14 15.1295 10.186 14.1175C10.2288 13.1815 10.3852 12.6735 10.5166 12.3351C10.6906 11.8871 10.899 11.5671 11.235 11.2311C11.571 10.8951 11.891 10.6871 12.339 10.5127C12.6774 10.3807 13.1856 10.2246 14.1216 10.1816C15.0072 10.1416 15.3504 10.1296 17.1397 10.1276V10.13ZM23.1253 11.7241C22.4893 11.7241 21.9733 12.2395 21.9733 12.8757C21.9733 13.5117 22.4893 14.0277 23.1253 14.0277C23.7613 14.0277 24.2773 13.5117 24.2773 12.8757C24.2773 12.2397 23.7613 11.7237 23.1253 11.7237V11.7241ZM18.0009 13.0701C15.2782 13.0701 13.0708 15.2775 13.0708 18.0001C13.0708 20.7228 15.2782 22.9292 18.0009 22.9292C20.7235 22.9292 22.9301 20.7228 22.9301 18.0001C22.9301 15.2775 20.7233 13.0701 18.0007 13.0701H18.0009ZM18.0009 14.8001C19.7681 14.8001 21.2009 16.2327 21.2009 18.0001C21.2009 19.7673 19.7681 21.2002 18.0009 21.2002C16.2334 21.2002 14.8008 19.7673 14.8008 18.0001C14.8008 16.2327 16.2334 14.8001 18.0009 14.8001Z" fill="white"/>
</g>
</svg>
