<svg width="264" height="264" viewBox="0 0 264 264" fill="none" xmlns="http://www.w3.org/2000/svg">
<rect width="264" height="264" rx="2" fill="#D7AA5B"/>
<circle cx="132" cy="109" r="62" fill="#F9E0B4"/>
<path d="M136.172 105.391H155.203V113.594H136.172V135.156H127.453V113.594H108.422V105.391H127.453V85.4688H136.172V105.391Z" fill="#9E4D20"/>
<path d="M59.2109 212.625V220.117C59.2109 221.362 58.8203 222.346 58.0391 223.07C57.263 223.794 56.2005 224.156 54.8516 224.156C53.5234 224.156 52.4688 223.805 51.6875 223.102C50.9062 222.398 50.5078 221.432 50.4922 220.203V212.625H52.8359V220.133C52.8359 220.878 53.013 221.422 53.3672 221.766C53.7266 222.104 54.2214 222.273 54.8516 222.273C56.1693 222.273 56.8385 221.581 56.8594 220.195V212.625H59.2109ZM63.4766 219.992V224H61.1328V212.625H65.5703C66.4245 212.625 67.1745 212.781 67.8203 213.094C68.4714 213.406 68.9714 213.852 69.3203 214.43C69.6693 215.003 69.8438 215.656 69.8438 216.391C69.8438 217.505 69.4609 218.385 68.6953 219.031C67.9349 219.672 66.8802 219.992 65.5312 219.992H63.4766ZM63.4766 218.094H65.5703C66.1901 218.094 66.6615 217.948 66.9844 217.656C67.3125 217.365 67.4766 216.948 67.4766 216.406C67.4766 215.849 67.3125 215.398 66.9844 215.055C66.6562 214.711 66.2031 214.534 65.625 214.523H63.4766V218.094ZM73.8047 222.117H78.7812V224H71.4609V212.625H73.8047V222.117ZM88.9766 218.57C88.9766 219.69 88.7786 220.672 88.3828 221.516C87.987 222.359 87.4193 223.01 86.6797 223.469C85.9453 223.927 85.1016 224.156 84.1484 224.156C83.2057 224.156 82.3646 223.93 81.625 223.477C80.8854 223.023 80.3125 222.378 79.9062 221.539C79.5 220.695 79.2943 219.727 79.2891 218.633V218.07C79.2891 216.951 79.4896 215.966 79.8906 215.117C80.2969 214.263 80.8672 213.609 81.6016 213.156C82.3411 212.698 83.1849 212.469 84.1328 212.469C85.0807 212.469 85.9219 212.698 86.6562 213.156C87.3958 213.609 87.9661 214.263 88.3672 215.117C88.7734 215.966 88.9766 216.948 88.9766 218.062V218.57ZM86.6016 218.055C86.6016 216.862 86.388 215.956 85.9609 215.336C85.5339 214.716 84.9245 214.406 84.1328 214.406C83.3464 214.406 82.7396 214.714 82.3125 215.328C81.8854 215.938 81.6693 216.833 81.6641 218.016V218.57C81.6641 219.732 81.8776 220.633 82.3047 221.273C82.7318 221.914 83.3464 222.234 84.1484 222.234C84.9349 222.234 85.5391 221.927 85.9609 221.312C86.3828 220.693 86.5964 219.792 86.6016 218.609V218.055ZM96.9297 221.656H92.8203L92.0391 224H89.5469L93.7812 212.625H95.9531L100.211 224H97.7188L96.9297 221.656ZM93.4531 219.758H96.2969L94.8672 215.5L93.4531 219.758ZM101.273 224V212.625H104.773C105.773 212.625 106.667 212.852 107.453 213.305C108.245 213.753 108.862 214.393 109.305 215.227C109.747 216.055 109.969 216.997 109.969 218.055V218.578C109.969 219.635 109.75 220.576 109.312 221.398C108.88 222.221 108.268 222.859 107.477 223.312C106.685 223.766 105.792 223.995 104.797 224H101.273ZM103.617 214.523V222.117H104.75C105.667 222.117 106.367 221.818 106.852 221.219C107.336 220.62 107.583 219.763 107.594 218.648V218.047C107.594 216.891 107.354 216.016 106.875 215.422C106.396 214.823 105.695 214.523 104.773 214.523H103.617ZM119.586 217.75L121.953 212.625H124.516L120.781 219.875V224H118.398V219.875L114.664 212.625H117.234L119.586 217.75ZM134.664 218.57C134.664 219.69 134.466 220.672 134.07 221.516C133.674 222.359 133.107 223.01 132.367 223.469C131.633 223.927 130.789 224.156 129.836 224.156C128.893 224.156 128.052 223.93 127.312 223.477C126.573 223.023 126 222.378 125.594 221.539C125.188 220.695 124.982 219.727 124.977 218.633V218.07C124.977 216.951 125.177 215.966 125.578 215.117C125.984 214.263 126.555 213.609 127.289 213.156C128.029 212.698 128.872 212.469 129.82 212.469C130.768 212.469 131.609 212.698 132.344 213.156C133.083 213.609 133.654 214.263 134.055 215.117C134.461 215.966 134.664 216.948 134.664 218.062V218.57ZM132.289 218.055C132.289 216.862 132.076 215.956 131.648 215.336C131.221 214.716 130.612 214.406 129.82 214.406C129.034 214.406 128.427 214.714 128 215.328C127.573 215.938 127.357 216.833 127.352 218.016V218.57C127.352 219.732 127.565 220.633 127.992 221.273C128.419 221.914 129.034 222.234 129.836 222.234C130.622 222.234 131.227 221.927 131.648 221.312C132.07 220.693 132.284 219.792 132.289 218.609V218.055ZM144.977 212.625V220.117C144.977 221.362 144.586 222.346 143.805 223.07C143.029 223.794 141.966 224.156 140.617 224.156C139.289 224.156 138.234 223.805 137.453 223.102C136.672 222.398 136.273 221.432 136.258 220.203V212.625H138.602V220.133C138.602 220.878 138.779 221.422 139.133 221.766C139.492 222.104 139.987 222.273 140.617 222.273C141.935 222.273 142.604 221.581 142.625 220.195V212.625H144.977ZM151.109 219.836H149.242V224H146.898V212.625H151.125C152.469 212.625 153.505 212.924 154.234 213.523C154.964 214.122 155.328 214.969 155.328 216.062C155.328 216.839 155.159 217.487 154.82 218.008C154.487 218.523 153.979 218.935 153.297 219.242L155.758 223.891V224H153.242L151.109 219.836ZM149.242 217.938H151.133C151.721 217.938 152.177 217.789 152.5 217.492C152.823 217.19 152.984 216.776 152.984 216.25C152.984 215.714 152.831 215.292 152.523 214.984C152.221 214.677 151.755 214.523 151.125 214.523H149.242V217.938ZM163.594 224H161.25V212.625H163.594V224ZM168.836 212.625L171.758 220.875L174.664 212.625H177.742V224H175.391V220.891L175.625 215.523L172.555 224H170.945L167.883 215.531L168.117 220.891V224H165.773V212.625H168.836ZM186.352 221.656H182.242L181.461 224H178.969L183.203 212.625H185.375L189.633 224H187.141L186.352 221.656ZM182.875 219.758H185.719L184.289 215.5L182.875 219.758ZM199.523 222.562C199.102 223.068 198.505 223.461 197.734 223.742C196.964 224.018 196.109 224.156 195.172 224.156C194.188 224.156 193.323 223.943 192.578 223.516C191.839 223.083 191.266 222.458 190.859 221.641C190.458 220.823 190.253 219.862 190.242 218.758V217.984C190.242 216.849 190.432 215.867 190.812 215.039C191.198 214.206 191.75 213.57 192.469 213.133C193.193 212.69 194.039 212.469 195.008 212.469C196.357 212.469 197.411 212.792 198.172 213.438C198.932 214.078 199.383 215.013 199.523 216.242H197.242C197.138 215.591 196.906 215.115 196.547 214.812C196.193 214.51 195.703 214.359 195.078 214.359C194.281 214.359 193.674 214.659 193.258 215.258C192.841 215.857 192.63 216.747 192.625 217.93V218.656C192.625 219.849 192.852 220.75 193.305 221.359C193.758 221.969 194.422 222.273 195.297 222.273C196.177 222.273 196.805 222.086 197.18 221.711V219.75H195.047V218.023H199.523V222.562ZM208.273 219.07H203.773V222.117H209.055V224H201.43V212.625H209.039V214.523H203.773V217.234H208.273V219.07Z" fill="white"/>
</svg>
