<svg width="36" height="36" viewBox="0 0 36 36" fill="none" xmlns="http://www.w3.org/2000/svg">
<path fill-rule="evenodd" clip-rule="evenodd" d="M18 36C27.9411 36 36 27.9411 36 18C36 8.05888 27.9411 0 18 0C8.05888 0 0 8.05888 0 18C0 27.9411 8.05888 36 18 36Z" fill="#25D366"/>
<path fill-rule="evenodd" clip-rule="evenodd" d="M18.5933 28.0144H18.5889C16.7975 28.0137 15.0373 27.5643 13.474 26.7116L7.79999 28.2L9.31845 22.6536C8.38179 21.0304 7.88892 19.1891 7.88973 17.3027C7.89207 11.4012 12.6936 6.59998 18.5932 6.59998C21.4565 6.60121 24.1439 7.71587 26.1646 9.73903C28.1854 11.7621 29.2977 14.4512 29.2966 17.3111C29.2942 23.2112 24.4946 28.012 18.5933 28.0144ZM13.7369 24.7739L14.0618 24.9667C15.4277 25.7772 16.9934 26.2061 18.5897 26.2067H18.5933C23.4966 26.2067 27.4875 22.2158 27.4894 17.3105C27.4903 14.9334 26.5659 12.6983 24.8863 11.0167C23.2067 9.33514 20.973 8.40862 18.5968 8.4078C13.6897 8.4078 9.69885 12.3983 9.6969 17.3033C9.69621 18.9842 10.1665 20.6213 11.0571 22.0377L11.2686 22.3743L10.3699 25.6571L13.7369 24.7739ZM23.9856 19.8563C23.9187 19.7448 23.7405 19.6778 23.473 19.5439C23.2056 19.4101 21.8907 18.7631 21.6455 18.6738C21.4004 18.5846 21.2221 18.54 21.0438 18.8077C20.8656 19.0754 20.353 19.6778 20.197 19.8563C20.041 20.0347 19.885 20.0572 19.6176 19.9232C19.3502 19.7894 18.4885 19.507 17.4669 18.5958C16.6719 17.8867 16.1351 17.0109 15.9791 16.7432C15.8231 16.4754 15.9625 16.3307 16.0964 16.1974C16.2167 16.0775 16.3638 15.8849 16.4976 15.7288C16.6313 15.5727 16.6758 15.461 16.765 15.2827C16.8541 15.1041 16.8096 14.948 16.7427 14.8141C16.6758 14.6802 16.141 13.3638 15.9181 12.8283C15.701 12.3068 15.4805 12.3775 15.3164 12.3693C15.1606 12.3614 14.9821 12.3598 14.8038 12.3598C14.6255 12.3598 14.3358 12.4267 14.0906 12.6945C13.8455 12.9622 13.1546 13.6092 13.1546 14.9255C13.1546 16.2419 14.1129 17.5137 14.2467 17.6921C14.3804 17.8707 16.1325 20.5719 18.8153 21.7304C19.4534 22.0059 19.9515 22.1705 20.34 22.2937C20.9806 22.4973 21.5637 22.4686 22.0244 22.3997C22.5383 22.323 23.6067 21.7528 23.8297 21.1281C24.0524 20.5033 24.0524 19.9678 23.9856 19.8563Z" fill="#FDFDFD"/>
</svg>
