<svg width="200" height="40" viewBox="0 0 200 40" fill="none" xmlns="http://www.w3.org/2000/svg">
<rect width="200" height="40" rx="3" fill="url(#paint0_linear)"/>
<path d="M65.7417 24V14.7578H68.3506C69.1546 14.7578 69.8656 14.9355 70.4834 15.291C71.1012 15.6465 71.5773 16.1522 71.9116 16.8081C72.2502 17.464 72.4215 18.2173 72.4258 19.0679V19.6582C72.4258 20.5299 72.2565 21.2938 71.918 21.9497C71.5837 22.6056 71.1034 23.1092 70.4771 23.4604C69.855 23.8117 69.1292 23.9915 68.2998 24H65.7417ZM66.9604 15.7607V23.0034H68.2427C69.1821 23.0034 69.9121 22.7114 70.4326 22.1274C70.9574 21.5435 71.2197 20.7119 71.2197 19.6328V19.0933C71.2197 18.0438 70.9722 17.2292 70.4771 16.6494C69.9862 16.0654 69.2879 15.7692 68.3823 15.7607H66.9604ZM81.3823 19.6772C81.3823 20.5828 81.23 21.3742 80.9253 22.0513C80.6206 22.7241 80.189 23.2383 79.6304 23.5938C79.0718 23.9492 78.4201 24.127 77.6753 24.127C76.9474 24.127 76.3021 23.9492 75.7393 23.5938C75.1764 23.234 74.7384 22.7241 74.4253 22.064C74.1164 21.3996 73.9577 20.6315 73.9492 19.7598V19.0933C73.9492 18.2046 74.1037 17.4196 74.4126 16.7383C74.7215 16.057 75.1574 15.5365 75.7202 15.1768C76.2873 14.8128 76.9347 14.6309 77.6626 14.6309C78.4032 14.6309 79.0549 14.8107 79.6177 15.1704C80.1847 15.5259 80.6206 16.0443 80.9253 16.7256C81.23 17.4027 81.3823 18.1919 81.3823 19.0933V19.6772ZM80.1699 19.0806C80.1699 17.9845 79.9499 17.1445 79.5098 16.5605C79.0697 15.9723 78.4539 15.6782 77.6626 15.6782C76.8924 15.6782 76.2852 15.9723 75.8408 16.5605C75.4007 17.1445 75.1743 17.957 75.1616 18.998V19.6772C75.1616 20.7394 75.3838 21.5752 75.8281 22.1846C76.2767 22.7897 76.8924 23.0923 77.6753 23.0923C78.4624 23.0923 79.0718 22.8066 79.5034 22.2354C79.9351 21.6598 80.1572 20.8368 80.1699 19.7661V19.0806ZM85.2036 21.0864L85.3813 22.3052L85.6416 21.207L87.4697 14.7578H88.498L90.2817 21.207L90.5356 22.3242L90.7324 21.0801L92.167 14.7578H93.3921L91.1514 24H90.0405L88.1362 17.2651L87.9902 16.5605L87.8442 17.2651L85.8701 24H84.7593L82.5249 14.7578H83.7437L85.2036 21.0864ZM101.854 24H100.628L95.9756 16.8779V24H94.7505V14.7578H95.9756L100.641 21.9116V14.7578H101.854V24ZM105.243 23.0034H109.623V24H104.018V14.7578H105.243V23.0034ZM117.704 19.6772C117.704 20.5828 117.551 21.3742 117.247 22.0513C116.942 22.7241 116.51 23.2383 115.952 23.5938C115.393 23.9492 114.741 24.127 113.997 24.127C113.269 24.127 112.623 23.9492 112.061 23.5938C111.498 23.234 111.06 22.7241 110.747 22.064C110.438 21.3996 110.279 20.6315 110.271 19.7598V19.0933C110.271 18.2046 110.425 17.4196 110.734 16.7383C111.043 16.057 111.479 15.5365 112.042 15.1768C112.609 14.8128 113.256 14.6309 113.984 14.6309C114.724 14.6309 115.376 14.8107 115.939 15.1704C116.506 15.5259 116.942 16.0443 117.247 16.7256C117.551 17.4027 117.704 18.1919 117.704 19.0933V19.6772ZM116.491 19.0806C116.491 17.9845 116.271 17.1445 115.831 16.5605C115.391 15.9723 114.775 15.6782 113.984 15.6782C113.214 15.6782 112.606 15.9723 112.162 16.5605C111.722 17.1445 111.496 17.957 111.483 18.998V19.6772C111.483 20.7394 111.705 21.5752 112.149 22.1846C112.598 22.7897 113.214 23.0923 113.997 23.0923C114.784 23.0923 115.393 22.8066 115.825 22.2354C116.256 21.6598 116.479 20.8368 116.491 19.7661V19.0806ZM124.496 21.5879H120.624L119.754 24H118.497L122.026 14.7578H123.093L126.628 24H125.378L124.496 21.5879ZM120.992 20.585H124.134L122.56 16.2622L120.992 20.585ZM127.873 24V14.7578H130.481C131.285 14.7578 131.996 14.9355 132.614 15.291C133.232 15.6465 133.708 16.1522 134.042 16.8081C134.381 17.464 134.552 18.2173 134.557 19.0679V19.6582C134.557 20.5299 134.387 21.2938 134.049 21.9497C133.715 22.6056 133.234 23.1092 132.608 23.4604C131.986 23.8117 131.26 23.9915 130.431 24H127.873ZM129.091 15.7607V23.0034H130.374C131.313 23.0034 132.043 22.7114 132.563 22.1274C133.088 21.5435 133.351 20.7119 133.351 19.6328V19.0933C133.351 18.0438 133.103 17.2292 132.608 16.6494C132.117 16.0654 131.419 15.7692 130.513 15.7607H129.091Z" fill="white"/>
<defs>
<linearGradient id="paint0_linear" x1="200" y1="-2.91038e-05" x2="-6.91934" y2="52.9713" gradientUnits="userSpaceOnUse">
<stop stop-color="#F6AE0B"/>
<stop offset="1" stop-color="#D65400"/>
</linearGradient>
</defs>
</svg>
