<svg width="26" height="20" viewBox="0 0 26 20" fill="none" xmlns="http://www.w3.org/2000/svg">
<path fill-rule="evenodd" clip-rule="evenodd" d="M9.64143 0H16.3594C16.8201 0 17.4246 0.299822 17.7082 0.669521L19.5542 3.39148C19.7346 3.65636 20.0344 3.81724 20.3546 3.81724H24.3246C25.2509 3.81724 26 4.57289 26 5.50973V17.8081C26 18.7433 25.2509 19.5014 24.3246 19.5014H1.67624C0.749961 19.5014 0 18.745 0 17.8081V5.50973C0 4.57452 0.749961 3.81724 1.67624 3.81724H5.66249C5.97206 3.81724 6.26213 3.66286 6.43764 3.40611L8.29182 0.669521C8.57621 0.300634 9.18316 0 9.64143 0ZM19.291 5.93613C19.291 6.40415 19.6663 6.7836 20.1295 6.7836C20.5934 6.7836 20.968 6.40415 20.968 5.93613C20.968 5.46812 20.5934 5.08786 20.1295 5.08786C19.6663 5.08786 19.291 5.46812 19.291 5.93613ZM7.12911 11.4467C7.12911 14.7244 9.75763 17.3814 13.0004 17.3814C16.2432 17.3814 18.8709 14.7244 18.8709 11.4467C18.8709 8.16813 16.2432 5.51199 13.0004 5.51199C9.75763 5.51199 7.12911 8.16813 7.12911 11.4467ZM2.51558 0.8481H4.19425C4.65739 0.8481 5.03197 1.22511 5.03197 1.69638V2.54384H1.67705V1.69638C1.67705 1.22755 2.05 0.8481 2.51558 0.8481ZM8.38771 11.4467C8.38771 8.87015 10.4523 6.78358 13.0004 6.78358C15.5485 6.78358 17.6131 8.87015 17.6131 11.4467C17.6131 14.0224 15.5485 16.1097 13.0004 16.1097C10.4523 16.1097 8.38771 14.0224 8.38771 11.4467Z" fill="#ED9508"/>
</svg>
