<svg width="322" height="60" viewBox="0 0 322 60" fill="none" xmlns="http://www.w3.org/2000/svg">
<g filter="url(#filter0_d)">
<rect x="10" y="9" width="302" height="40" rx="3" fill="white"/>
<rect x="10.5" y="9.5" width="301" height="39" rx="2.5" stroke="#F4A80A"/>
</g>
<path d="M238.5 9.5H309C310.381 9.5 311.5 10.6193 311.5 12V46C311.5 47.3807 310.381 48.5 309 48.5H238.5V9.5Z" fill="white" stroke="#F4A80A"/>
<path d="M32.5791 23.7578V30.042C32.5749 30.9137 32.2998 31.6268 31.7539 32.1812C31.2122 32.7355 30.4759 33.0465 29.5449 33.1143L29.2212 33.127C28.2098 33.127 27.4036 32.854 26.8027 32.3081C26.2018 31.7622 25.8971 31.0111 25.8887 30.0547V23.7578H27.0947V30.0166C27.0947 30.6852 27.2788 31.2057 27.647 31.5781C28.0151 31.9463 28.5399 32.1304 29.2212 32.1304C29.911 32.1304 30.4378 31.9463 30.8018 31.5781C31.1699 31.21 31.354 30.6916 31.354 30.0229V23.7578H32.5791ZM35.4612 29.3818V33H34.2424V23.7578H37.6511C38.6625 23.7578 39.4539 24.016 40.0252 24.5322C40.6007 25.0485 40.8884 25.7319 40.8884 26.5825C40.8884 27.4797 40.607 28.1715 40.0442 28.6582C39.4856 29.1406 38.6837 29.3818 37.6384 29.3818H35.4612ZM35.4612 28.3853H37.6511C38.3028 28.3853 38.8022 28.2329 39.1492 27.9282C39.4962 27.6193 39.6697 27.175 39.6697 26.5952C39.6697 26.0451 39.4962 25.605 39.1492 25.2749C38.8022 24.9448 38.3261 24.7734 37.721 24.7607H35.4612V28.3853ZM43.4087 32.0034H47.7886V33H42.1836V23.7578H43.4087V32.0034ZM55.6092 28.6772C55.6092 29.5828 55.4568 30.3742 55.1521 31.0513C54.8474 31.7241 54.4158 32.2383 53.8572 32.5938C53.2986 32.9492 52.6469 33.127 51.9021 33.127C51.1743 33.127 50.5289 32.9492 49.9661 32.5938C49.4033 32.234 48.9653 31.7241 48.6521 31.064C48.3432 30.3996 48.1845 29.6315 48.1761 28.7598V28.0933C48.1761 27.2046 48.3305 26.4196 48.6394 25.7383C48.9484 25.057 49.3842 24.5365 49.9471 24.1768C50.5141 23.8128 51.1616 23.6309 51.8894 23.6309C52.63 23.6309 53.2817 23.8107 53.8445 24.1704C54.4116 24.5259 54.8474 25.0443 55.1521 25.7256C55.4568 26.4027 55.6092 27.1919 55.6092 28.0933V28.6772ZM54.3968 28.0806C54.3968 26.9845 54.1767 26.1445 53.7366 25.5605C53.2965 24.9723 52.6808 24.6782 51.8894 24.6782C51.1193 24.6782 50.512 24.9723 50.0677 25.5605C49.6276 26.1445 49.4012 26.957 49.3885 27.998V28.6772C49.3885 29.7394 49.6106 30.5752 50.055 31.1846C50.5035 31.7897 51.1193 32.0923 51.9021 32.0923C52.6892 32.0923 53.2986 31.8066 53.7303 31.2354C54.1619 30.6598 54.3841 29.8368 54.3968 28.7661V28.0806ZM62.1412 30.5879H58.2691L57.3995 33H56.1426L59.6719 23.7578H60.7383L64.274 33H63.0235L62.1412 30.5879ZM58.6372 29.585H61.7793L60.2051 25.2622L58.6372 29.585ZM65.2581 33V23.7578H67.867C68.671 23.7578 69.382 23.9355 69.9998 24.291C70.6176 24.6465 71.0937 25.1522 71.428 25.8081C71.7666 26.464 71.938 27.2173 71.9422 28.0679V28.6582C71.9422 29.5299 71.7729 30.2938 71.4344 30.9497C71.1001 31.6056 70.6198 32.1092 69.9935 32.4604C69.3714 32.8117 68.6456 32.9915 67.8162 33H65.2581ZM66.4769 24.7607V32.0034H67.7591C68.6985 32.0034 69.4285 31.7114 69.949 31.1274C70.4738 30.5435 70.7361 29.7119 70.7361 28.6328V28.0933C70.7361 27.0438 70.4886 26.2292 69.9935 25.6494C69.5026 25.0654 68.8043 24.7692 67.8987 24.7607H66.4769ZM79.3123 28.3979L81.7244 23.7578H83.1082L79.9217 29.5532V33H78.7029V29.5532L75.5164 23.7578H76.9129L79.3123 28.3979ZM90.9605 28.6772C90.9605 29.5828 90.8082 30.3742 90.5035 31.0513C90.1988 31.7241 89.7672 32.2383 89.2086 32.5938C88.65 32.9492 87.9983 33.127 87.2535 33.127C86.5256 33.127 85.8803 32.9492 85.3175 32.5938C84.7546 32.234 84.3166 31.7241 84.0035 31.064C83.6946 30.3996 83.5359 29.6315 83.5274 28.7598V28.0933C83.5274 27.2046 83.6819 26.4196 83.9908 25.7383C84.2997 25.057 84.7356 24.5365 85.2984 24.1768C85.8655 23.8128 86.5129 23.6309 87.2408 23.6309C87.9814 23.6309 88.6331 23.8107 89.1959 24.1704C89.7629 24.5259 90.1988 25.0443 90.5035 25.7256C90.8082 26.4027 90.9605 27.1919 90.9605 28.0933V28.6772ZM89.7481 28.0806C89.7481 26.9845 89.5281 26.1445 89.088 25.5605C88.6479 24.9723 88.0321 24.6782 87.2408 24.6782C86.4706 24.6782 85.8634 24.9723 85.419 25.5605C84.9789 26.1445 84.7525 26.957 84.7398 27.998V28.6772C84.7398 29.7394 84.962 30.5752 85.4063 31.1846C85.8549 31.7897 86.4706 32.0923 87.2535 32.0923C88.0406 32.0923 88.65 31.8066 89.0816 31.2354C89.5133 30.6598 89.7354 29.8368 89.7481 28.7661V28.0806ZM99.035 23.7578V30.042C99.0308 30.9137 98.7557 31.6268 98.2098 32.1812C97.6681 32.7355 96.9318 33.0465 96.0008 33.1143L95.6771 33.127C94.6657 33.127 93.8595 32.854 93.2586 32.3081C92.6577 31.7622 92.353 31.0111 92.3446 30.0547V23.7578H93.5506V30.0166C93.5506 30.6852 93.7347 31.2057 94.1029 31.5781C94.471 31.9463 94.9958 32.1304 95.6771 32.1304C96.3669 32.1304 96.8937 31.9463 97.2577 31.5781C97.6258 31.21 97.8099 30.6916 97.8099 30.0229V23.7578H99.035ZM104.088 29.2612H101.917V33H100.692V23.7578H103.752C104.793 23.7578 105.592 23.9948 106.151 24.4688C106.714 24.9427 106.995 25.6325 106.995 26.5381C106.995 27.1136 106.839 27.6151 106.525 28.0425C106.217 28.4699 105.785 28.7894 105.231 29.001L107.401 32.9238V33H106.094L104.088 29.2612ZM101.917 28.2646H103.79C104.395 28.2646 104.875 28.1081 105.231 27.7949C105.59 27.4818 105.77 27.0628 105.77 26.5381C105.77 25.9668 105.599 25.5288 105.256 25.2241C104.917 24.9194 104.427 24.765 103.783 24.7607H101.917V28.2646ZM112.721 33H111.503V23.7578H112.721V33ZM116.27 23.7578L119.291 31.2988L122.313 23.7578H123.893V33H122.675V29.4009L122.789 25.5161L119.755 33H118.822L115.794 25.5352L115.914 29.4009V33H114.696V23.7578H116.27ZM131.003 30.5879H127.131L126.261 33H125.005L128.534 23.7578H129.6L133.136 33H131.885L131.003 30.5879ZM127.499 29.585H130.641L129.067 25.2622L127.499 29.585ZM140.868 31.7876C140.554 32.2362 140.116 32.5726 139.554 32.7969C138.995 33.0169 138.343 33.127 137.599 33.127C136.845 33.127 136.177 32.9513 135.593 32.6001C135.009 32.2446 134.556 31.741 134.234 31.0894C133.917 30.4377 133.754 29.6823 133.746 28.8232V28.0171C133.746 26.6248 134.069 25.5457 134.717 24.7798C135.368 24.0138 136.282 23.6309 137.459 23.6309C138.424 23.6309 139.2 23.8784 139.788 24.3735C140.377 24.8644 140.736 25.5627 140.868 26.4683H139.649C139.42 25.2453 138.692 24.6338 137.465 24.6338C136.649 24.6338 136.029 24.9215 135.605 25.4971C135.186 26.0684 134.975 26.8978 134.971 27.9854V28.7407C134.971 29.7775 135.208 30.6027 135.682 31.2163C136.155 31.8257 136.797 32.1304 137.605 32.1304C138.062 32.1304 138.462 32.0796 138.805 31.978C139.147 31.8765 139.431 31.7051 139.655 31.4639V29.3882H137.516V28.3979H140.868V31.7876ZM147.869 28.728H143.864V32.0034H148.517V33H142.645V23.7578H148.453V24.7607H143.864V27.7314H147.869V28.728Z" fill="#8C8C8C"/>
<path fill-rule="evenodd" clip-rule="evenodd" d="M273.641 19H280.359C280.82 19 281.425 19.2998 281.708 19.6695L283.554 22.3915C283.735 22.6564 284.034 22.8172 284.355 22.8172H288.325C289.251 22.8172 290 23.5729 290 24.5097V36.8081C290 37.7433 289.251 38.5014 288.325 38.5014H265.676C264.75 38.5014 264 37.745 264 36.8081V24.5097C264 23.5745 264.75 22.8172 265.676 22.8172H269.662C269.972 22.8172 270.262 22.6629 270.438 22.4061L272.292 19.6695C272.576 19.3006 273.183 19 273.641 19ZM283.291 24.9361C283.291 25.4041 283.666 25.7836 284.129 25.7836C284.593 25.7836 284.968 25.4041 284.968 24.9361C284.968 24.4681 284.593 24.0879 284.129 24.0879C283.666 24.0879 283.291 24.4681 283.291 24.9361ZM271.129 30.4467C271.129 33.7244 273.758 36.3814 277 36.3814C280.243 36.3814 282.871 33.7244 282.871 30.4467C282.871 27.1681 280.243 24.512 277 24.512C273.758 24.512 271.129 27.1681 271.129 30.4467ZM266.516 19.8481H268.194C268.657 19.8481 269.032 20.2251 269.032 20.6964V21.5438H265.677V20.6964C265.677 20.2275 266.05 19.8481 266.516 19.8481ZM272.388 30.4467C272.388 27.8701 274.452 25.7836 277 25.7836C279.548 25.7836 281.613 27.8701 281.613 30.4467C281.613 33.0224 279.548 35.1097 277 35.1097C274.452 35.1097 272.388 33.0224 272.388 30.4467Z" fill="#000"/>
<defs>
<filter id="filter0_d" x="0" y="0" width="322" height="60" filterUnits="userSpaceOnUse" color-interpolation-filters="sRGB">
<feFlood flood-opacity="0" result="BackgroundImageFix"/>
<feColorMatrix in="SourceAlpha" type="matrix" values="0 0 0 0 0 0 0 0 0 0 0 0 0 0 0 0 0 0 127 0"/>
<feOffset dy="1"/>
<feGaussianBlur stdDeviation="5"/>
<feColorMatrix type="matrix" values="0 0 0 0 0 0 0 0 0 0 0 0 0 0 0 0 0 0 0.15 0"/>
<feBlend mode="normal" in2="BackgroundImageFix" result="effect1_dropShadow"/>
<feBlend mode="normal" in="SourceGraphic" in2="effect1_dropShadow" result="shape"/>
</filter>
</defs>
</svg>
