<svg width="200" height="40" viewBox="0 0 200 40" fill="none" xmlns="http://www.w3.org/2000/svg">
<rect width="200" height="40" rx="3" fill="url(#paint0_linear)"/>
<path d="M74.0576 23.2568L76.9014 15.0469H78.3369L74.6455 25H73.4834L69.7988 15.0469H71.2275L74.0576 23.2568ZM81.085 25H79.7725V15.0469H81.085V25ZM89.1172 20.3994H84.8037V23.9268H89.8145V25H83.4912V15.0469H89.7461V16.127H84.8037V19.3262H89.1172V20.3994ZM93.5947 21.8623L93.7861 23.1748L94.0664 21.9922L96.0352 15.0469H97.1426L99.0635 21.9922L99.3369 23.1953L99.5488 21.8555L101.094 15.0469H102.413L100 25H98.8037L96.7529 17.7471L96.5957 16.9883L96.4385 17.7471L94.3125 25H93.1162L90.71 15.0469H92.0225L93.5947 21.8623ZM112.845 22.4023H108.675L107.738 25H106.385L110.186 15.0469H111.334L115.142 25H113.795L112.845 22.4023ZM109.071 21.3223H112.455L110.76 16.667L109.071 21.3223ZM117.801 23.9268H122.518V25H116.481V15.0469H117.801V23.9268ZM125.334 23.9268H130.051V25H124.015V15.0469H125.334V23.9268Z" fill="white"/>
<defs>
<linearGradient id="paint0_linear" x1="200" y1="-2.91038e-05" x2="-6.91934" y2="52.9713" gradientUnits="userSpaceOnUse">
<stop stop-color="#F6AE0B"/>
<stop offset="1" stop-color="#D65400"/>
</linearGradient>
</defs>
</svg>
